:SAMPLES-PER-SECOND 30
:FULLY-SPECIFIED
:DEGREES
623
root  14.0521 38.6896 -17.2987 24.9911 76.1758 31.6364
RightUpLeg  -17.813 -9.07933 -7.47112
RightLeg  -3.06674 -20.1254 6.93169
RightFoot  -1.73615 -0.584956 6.89824
RightToes  0.00048216 0.542163 -0.142577
Spine  9.88515 -1.37691 -7.774
Spine1  8.44088 -3.37115 4.54419
HEad  -12.9286 0.378793 0.0215947
LeftShoulder1  7.77518 -11.9315 -43.8401
LeftArm  -11.2187 11.1985 -25.2059
LeftForeArm  48.5897 -53.7555 -11.344
LeftHand  -0.25398 0.0180481 5.50724
RightShoulder  4.23166 7.49544 32.5306
RightArm  2.75529 -23.0324 37.414
RightForeArm  3.52713 25.2858 5.23678
RightHand  -1.40361 4.25662 -17.118
LeftUpLeg  15.7071 4.98172 -8.97838
LeftLeg  12.5286 11.5281 -2.43444
LeftFoot  -19.1918 0.238616 1.80906
LeftToes  1.06247e-005 4.65855e-005 -8.18501e-006
624
root  15.9296 38.2163 -16.8701 26.0208 75.7466 32.7231
RightUpLeg  -17.6855 -9.19531 -6.83552
RightLeg  -6.33339 -25.19 8.91788
RightFoot  -3.47337 -0.669219 9.27502
RightToes  0.00048216 0.542163 -0.142577
Spine  9.08977 -1.46284 -8.11405
Spine1  8.12084 -3.43055 4.70112
HEad  -12.5672 0.958784 0.00660707
LeftShoulder1  7.75887 -11.9398 -43.7184
LeftArm  -10.982 10.1173 -25.2189
LeftForeArm  49.7959 -54.1869 -11.4633
LeftHand  -0.25398 0.0180481 5.50724
RightShoulder  4.17042 7.37358 32.3976
RightArm  1.4944 -24.5904 37.5302
RightForeArm  2.7764 24.7833 5.1626
RightHand  -1.46016 4.50256 -17.3633
LeftUpLeg  18.279 6.95809 -8.37622
LeftLeg  14.3003 9.4091 -2.29471
LeftFoot  -20.7319 0.162896 0.46085
LeftToes  1.06247e-005 4.65855e-005 -8.18501e-006
625
root  17.8314 37.916 -16.4476 25.1508 75.8139 31.6117
RightUpLeg  -17.7321 -9.38354 -5.75558
RightLeg  -4.59918 -30.4045 9.66081
RightFoot  -3.56453 -0.487623 6.87347
RightToes  0.00048216 0.542163 -0.142577
Spine  8.03037 -1.88665 -7.37569
Spine1  8.56833 -3.98848 5.16711
HEad  -12.5835 1.82655 -0.347596
LeftShoulder1  7.74062 -11.8563 -43.8596
LeftArm  -10.8563 9.70358 -25.3495
LeftForeArm  50.4405 -54.3885 -11.512
LeftHand  -0.25398 0.0180481 5.50724
RightShoulder  4.05019 7.17184 31.9925
RightArm  0.81691 -25.6008 37.9279
RightForeArm  2.7556 23.7738 4.9486
RightHand  -1.39374 4.26598 -16.9798
LeftUpLeg  20.8266 10.5006 -6.18566
LeftLeg  15.8852 5.11849 -1.88919
LeftFoot  -20.5096 0.0113978 -1.38245
LeftToes  1.06247e-005 4.65855e-005 -8.18501e-006
626
root  19.8468 37.7536 -16.024 20.8128 76.3104 26.7228
RightUpLeg  -19.4027 -11.3634 -3.32799
RightLeg  2.86376 -31.3109 7.18349
RightFoot  -1.68224 0.107042 -1.18274
RightToes  0.00048216 0.542163 -0.142577
Spine  6.43798 -2.66937 -4.64343
Spine1  9.25715 -4.66945 5.14538
HEad  -12.4024 2.74987 -1.21219
LeftShoulder1  7.79357 -11.7477 -44.504
LeftArm  -10.1486 9.94409 -25.4004
LeftForeArm  50.2676 -53.7806 -11.2338
LeftHand  -0.25398 0.0180481 5.50724
RightShoulder  3.86305 6.83261 31.4253
RightArm  0.250888 -26.7364 38.2588
RightForeArm  3.40774 22.7315 4.77548
RightHand  -1.22912 3.58323 -16.1159
LeftUpLeg  23.1666 15.6438 -1.5348
LeftLeg  18.1341 -1.69608 -1.64947
LeftFoot  -18.8842 -0.231268 -5.27778
LeftToes  1.06247e-005 4.65855e-005 -8.18501e-006
627
root  21.9556 37.645 -15.5923 10.3731 75.7286 15.7583
RightUpLeg  -22.7442 -18.5967 3.19473
RightLeg  12.7861 -21.8256 1.61854
RightFoot  0.707035 1.16995 -11.0328
RightToes  0.00048216 0.542163 -0.142577
Spine  5.2643 -3.11613 0.492831
Spine1  8.95272 -4.53662 3.90388
HEad  -11.4275 3.77139 -2.51235
LeftShoulder1  7.87557 -11.6352 -45.3402
LeftArm  -8.96045 10.6758 -25.817
LeftForeArm  49.542 -51.7077 -10.3526
LeftHand  -0.25398 0.0180481 5.50724
RightShoulder  3.76832 6.62296 31.2618
RightArm  -0.367475 -28.1245 37.8504
RightForeArm  4.46475 21.5586 4.75562
RightHand  -1.03986 2.76991 -14.9905
LeftUpLeg  24.0393 18.8345 3.79362
LeftLeg  23.117 -5.67712 -2.15825
LeftFoot  -14.3431 -0.166012 -10.4407
LeftToes  1.06247e-005 4.65855e-005 -8.18501e-006
628
root  23.9226 37.5867 -15.132 -1.03374 73.2786 3.9532
RightUpLeg  -25.4503 -24.5812 10.8426
RightLeg  19.5203 -10.7608 -2.80608
RightFoot  1.34996 1.92131 -17.1385
RightToes  0.00048216 0.542163 -0.142577
Spine  5.45353 -3.04527 5.68559
Spine1  7.56414 -3.80271 2.80166
HEad  -10.1617 5.31985 -3.86517
LeftShoulder1  7.89633 -11.5291 -45.7951
LeftArm  -8.29581 11.7133 -27.1483
LeftForeArm  48.8123 -48.6672 -9.16651
LeftHand  -0.25398 0.0180481 5.50724
RightShoulder  3.85207 6.76796 31.5528
RightArm  -1.26555 -28.7431 36.7874
RightForeArm  6.10552 19.8176 4.92242
RightHand  -0.858436 1.96898 -13.7074
LeftUpLeg  21.3458 18.9266 7.37509
LeftLeg  32.2374 -4.51283 -2.66153
LeftFoot  -3.69498 0.891326 -13.3193
LeftToes  1.06247e-005 4.65855e-005 -8.18501e-006
